<?xml version="1.0" encoding="UTF-8"?>
<svg xmlns="http://www.w3.org/2000/svg" version="1.1" viewBox="0 0 900 500">
  <defs>
    <style>
      .cls-1, .cls-2, .cls-3, .cls-4, .cls-5 {
        fill: none;
      }

      .cls-2 {
        stroke: #0f62fe;
      }

      .cls-6 {
        fill: #f4f4f4;
      }

      .cls-7 {
        mix-blend-mode: multiply;
      }

      .cls-7, .cls-8, .cls-9, .cls-10 {
        isolation: isolate;
      }

      .cls-7, .cls-11 {
        fill: #fff;
      }

      .cls-12 {
        fill: #736f6f;
      }

      .cls-13 {
        fill: #edf5ff;
      }

      .cls-14 {
        fill: #c9c9c9;
      }

      .cls-15 {
        fill: #6f6f6f;
      }

      .cls-16 {
        fill: #d9fbfb;
      }

      .cls-3 {
        stroke: #878d96;
      }

      .cls-17 {
        fill: #a7a5a6;
      }

      .cls-4 {
        stroke: #999;
        stroke-miterlimit: 10;
      }

      .cls-9 {
        font-size: 14px;
      }

      .cls-9, .cls-10 {
        font-family: IBMPlexSans-Bold, 'IBM Plex Sans';
        font-weight: 700;
      }

      .cls-10 {
        font-size: 12px;
      }

      .cls-18 {
        fill: #161616;
      }

      .cls-5 {
        stroke: #6f6f6f;
      }
    </style>
  </defs>
  <!-- Generator: Adobe Illustrator 28.7.1, SVG Export Plug-In . SVG Version: 1.2.0 Build 142)  -->
  <g class="cls-8">
    <g id="Layer_1">
      <rect class="cls-6" x="1" width="900" height="500"/>
      <rect class="cls-11" x="223.5" y="83.8" width="452" height="300.7"/>
      <rect class="cls-5" x="223.5" y="83.8" width="452" height="300.7"/>
      <path class="cls-15" d="M227,83.3h-4v48h4v-48Z"/>
      <g class="cls-8">
        <g class="cls-8">
          <g class="cls-8">
            <text class="cls-9" transform="translate(239.7 113.9)"><tspan x="0" y="0">Red Hat AI InstructLab for IBM Cloud</tspan></text>
          </g>
        </g>
      </g>
      <rect class="cls-6" x="374.3" y="173.6" width="47" height="46"/>
      <rect class="cls-7" x="685.5" y="272" width="20" height="20"/>
      <rect class="cls-6" x="374.3" y="173.6" width="47" height="46.9"/>
      <rect class="cls-14" x="378.9" y="177.5" width="37.6" height="38.9"/>
      <rect class="cls-7" x="257" y="268.3" width="91" height="110"/>
      <rect class="cls-3" x="374.3" y="173" width="47" height="47.5"/>
      <rect class="cls-16" x="280.4" y="268.8" width="47" height="47"/>
      <path class="cls-11" d="M279.5,269.3h46v46h-46v-46Z"/>
      <rect class="cls-7" x="292.5" y="282.3" width="20" height="20"/>
      <circle class="cls-18" cx="136.9" cy="290.8" r="24"/>
      <rect class="cls-7" x="126.9" y="280.8" width="20" height="20"/>
      <path class="cls-13" d="M375.5,269.8h142.1v46h-142.1v-46h0Z"/>
      <rect class="cls-2" x="375.5" y="269.3" width="142.6" height="47"/>
      <rect class="cls-7" x="726.8" y="269.9" width="76" height="74"/>
      <rect class="cls-7" x="754.8" y="277.9" width="20" height="20"/>
      <path class="cls-11" d="M758.6,296.6h12.5c.3,0,.6-.1.9-.4.2-.2.4-.6.4-.9v-3.8c0-.3,0-.6-.4-.9s-.6-.4-.9-.4h-12.5c-.3,0-.6.1-.9.4s-.4.6-.4.9v3.8c0,.3,0,.6.4.9.2.2.6.4.9.4ZM758.6,291.6h12.5v3.8h-12.5v-3.8Z"/>
      <path class="cls-11" d="M760.4,294.1c.3,0,.6-.3.6-.6s-.3-.6-.6-.6-.6.3-.6.6.3.6.6.6Z"/>
      <circle class="cls-18" cx="759.8" cy="291.6" r="24"/>
      <circle class="cls-11" cx="759.6" cy="291.6" r="17.7"/>
      <path class="cls-13" d="M281.9,268.4h46v46h-46v-46Z"/>
      <rect class="cls-2" x="281.4" y="268.3" width="47" height="47"/>
      <rect class="cls-6" x="471.1" y="173" width="47" height="47"/>
      <rect class="cls-6" x="471.1" y="173.6" width="47" height="45.1"/>
      <rect class="cls-14" x="475.7" y="177.1" width="37.6" height="38.9"/>
      <path class="cls-12" d="M299,208.8"/>
      <path class="cls-12" d="M319,208.8"/>
      <polygon class="cls-17" points="273.4 291.8 277.3 291.8 277.3 293.5 281.2 291.3 277.3 289.1 277.3 290.8 273.4 290.8 273.4 291.8"/>
      <line class="cls-4" x1="161.9" y1="291.3" x2="273.2" y2="291.3"/>
      <polygon class="cls-17" points="367.7 293.8 371.6 293.8 371.6 295.5 375.5 293.3 371.6 291.1 371.6 292.8 367.7 292.8 367.7 293.8"/>
      <line class="cls-4" x1="328.4" y1="293.3" x2="371.6" y2="293.3"/>
      <polygon class="cls-17" points="558.4 293.6 562.3 293.6 562.3 295.3 566.2 293.1 562.3 290.8 562.3 292.5 558.4 292.5 558.4 293.6"/>
      <line class="cls-4" x1="519.1" y1="293.1" x2="558.8" y2="293.1"/>
      <polygon class="cls-17" points="723.9 293.9 727.8 293.9 727.8 295.6 731.7 293.4 727.8 291.1 727.8 292.8 723.9 292.8 723.9 293.9"/>
      <line class="cls-4" x1="613.5" y1="293.7" x2="724.8" y2="293.7"/>
      <line class="cls-4" x1="390.5" y1="269.1" x2="390.5" y2="225.2"/>
      <line class="cls-4" x1="409" y1="261" x2="409" y2="221.3"/>
      <polygon class="cls-17" points="391.1 229.2 391.1 225.2 392.8 225.2 390.5 221.4 388.3 225.2 390 225.2 390 229.2 391.1 229.2"/>
      <polygon class="cls-17" points="408.4 260.8 408.4 264.7 406.7 264.7 409 268.6 411.2 264.7 409.5 264.7 409.5 260.8 408.4 260.8"/>
      <line class="cls-4" x1="485.3" y1="268.3" x2="485.3" y2="224.5"/>
      <line class="cls-4" x1="503.8" y1="260.2" x2="503.8" y2="220.5"/>
      <polygon class="cls-17" points="485.9 228.4 485.9 224.5 487.6 224.5 485.3 220.6 483.1 224.5 484.8 224.5 484.8 228.4 485.9 228.4"/>
      <polygon class="cls-17" points="503.2 260 503.2 263.9 501.5 263.9 503.8 267.8 506 263.9 504.3 263.9 504.3 260 503.2 260"/>
      <g>
        <rect class="cls-6" x="512.3" y="211.5" width="13.8" height="12.2" transform="translate(-1.8 430.9) rotate(-45)"/>
        <rect class="cls-6" x="513.8" y="212.5" width="11.1" height="10.4" transform="translate(-1.8 431) rotate(-45)"/>
      </g>
      <g>
        <rect class="cls-6" x="416.1" y="208.4" width="9.2" height="13.8" transform="translate(-51.1 242.5) rotate(-30.4)"/>
        <rect class="cls-6" x="417.2" y="209.8" width="7.4" height="11.7" transform="translate(-51.2 242.6) rotate(-30.4)"/>
      </g>
      <line class="cls-4" x1="257.6" y1="437.4" x2="300.9" y2="437.4"/>
      <polygon class="cls-17" points="301 437.9 304.9 437.9 304.9 439.6 308.8 437.4 304.9 435.2 304.9 436.9 301 436.9 301 437.9"/>
      <circle class="cls-11" cx="136.9" cy="291.4" r="17.7"/>
      <g>
        <path d="M136.9,282.4c2.2,0,4.1,1.8,4.1,4.1s-1.8,4.1-4.1,4.1-4.1-1.8-4.1-4.1,1.8-4.1,4.1-4.1M136.9,280.8c-3.1,0-5.7,2.5-5.7,5.7s2.5,5.7,5.7,5.7,5.7-2.5,5.7-5.7-2.5-5.7-5.7-5.7Z"/>
        <path d="M145.1,303.6h-1.6v-4.1c0-2.2-1.8-4.1-4.1-4.1h-4.9c-2.2,0-4.1,1.8-4.1,4.1v4.1h-1.6v-4.1c0-3.1,2.5-5.7,5.7-5.7h4.9c3.1,0,5.7,2.5,5.7,5.7v4.1h0Z"/>
        <rect id="_Transparent_Rectangle_" class="cls-1" x="123.9" y="279.2" width="26" height="26"/>
      </g>
      <rect class="cls-3" x="471.1" y="173" width="47" height="47"/>
      <g>
        <rect class="cls-6" x="514.5" y="207.7" width="7.9" height="13" transform="translate(-22.7 361.7) rotate(-37.7)"/>
        <rect class="cls-6" x="515.3" y="208.8" width="6.3" height="11.1" transform="translate(-22.8 361.8) rotate(-37.7)"/>
      </g>
      <g>
        <rect class="cls-6" x="413.9" y="213.6" width="11.3" height="13.8"/>
        <rect class="cls-6" x="415" y="214.8" width="9" height="11.7"/>
      </g>
      <g>
        <rect class="cls-6" x="511.4" y="211.5" width="10.1" height="9.6"/>
        <rect class="cls-6" x="512.4" y="212.4" width="8.1" height="8.2"/>
      </g>
      <g>
        <path d="M428.9,211.5l-7.5-4.4h-.6l-7.5,4.4c-.2.1-.3.3-.3.5v8.8c0,.2.1.4.3.5l7.5,4.4h.6l7.5-4.4c.2-.1.3-.3.3-.5v-8.8c0-.2-.1-.4-.3-.5ZM421.1,208.4l6.3,3.7-1.5.9-3.5-2c-.2-.1-.4-.1-.6,0l-4.1,2.4c-.1,0-.2.2-.3.3l-2.6-1.5,6.3-3.7h0ZM418.5,215.7l1.9,1.1v2.4l-1.9-1.1v-2.4ZM421.1,215.7l-2.5-1.5h0c0-.1,3.5-2.1,3.5-2.1l2.6,1.5-3.6,2.1h0ZM421.7,216.8l3.8-2.2v3.5l-3.5,2-.3-.2v-3.1ZM414.1,213.1l3.1,1.8v3.5c0,.2.1.4.3.5l2.8,1.6v3.5l-6.3-3.7v-7.3h.1ZM421.7,224.2v-2.8h.6l4.1-2.4c.2-.1.3-.3.3-.5v-4.6l1.3-.7v7.3l-6.3,3.7h0Z"/>
        <rect id="_x3C_Transparent_Rectangle_x3E_" class="cls-1" x="411" y="206.4" width="20.1" height="20.1"/>
      </g>
      <path class="cls-13" d="M567.4,269.8h46v46h-46v-46Z"/>
      <rect class="cls-2" x="566.9" y="269.3" width="47" height="47"/>
      <g>
        <path d="M457.5,305.8v-4.1c2.3-.5,4-2.5,4-4.9s-1.7-4.4-4-4.9v-14.1h-2v14.1c-2.3.5-4,2.5-4,4.9s1.7,4.4,4,4.9v4.1h2ZM453.5,296.8c0-1.7,1.3-3,3-3s3,1.3,3,3-1.3,3-3,3-3-1.3-3-3Z"/>
        <path d="M441.5,277.8v4.1c-2.3.5-4,2.5-4,4.9s1.7,4.4,4,4.9v14.1h2v-14.1c2.3-.5,4-2.5,4-4.9s-1.7-4.4-4-4.9v-4.1h-2ZM445.5,286.8c0,1.7-1.3,3-3,3s-3-1.3-3-3,1.3-3,3-3,3,1.3,3,3Z"/>
        <g id="_Transparent_Rectangle_1">
          <rect class="cls-1" x="433.5" y="275.8" width="32" height="32"/>
        </g>
      </g>
      <g>
        <path d="M766.3,303.3v-1.9c.5-.3.8-.8.8-1.5s-.3-1.2-.8-1.5v-3.6h-1.7v3.6c-.5.3-.8.8-.8,1.5s.3,1.2.8,1.5v1.9h1.7Z"/>
        <path d="M772.2,298.2c0-.6-.3-1.2-.8-1.5v-1.9h-1.7v1.9c-.5.3-.8.8-.8,1.5s.3,1.2.8,1.5v3.6h1.7v-3.6c.5-.3.8-.8.8-1.5Z"/>
        <path d="M752.7,292.3h4.9l-6.2,6.2c-.3-.2-.7-.3-1.1-.3-1.4,0-2.5,1.1-2.5,2.5s1.1,2.5,2.5,2.5,2-.7,2.4-1.7h8.6v-1.7h-8.6v-.2l7.4-7.4h8.1v-.8c0-.5.4-.8.8-.8s.8.4.8.8v.8h1.7v-.8c0-1.4-1.1-2.5-2.5-2.5s-2,.7-2.4,1.7h-4.9l6.2-6.2c.3.2.7.3,1.1.3,1.4,0,2.5-1.1,2.5-2.5s-1.1-2.5-2.5-2.5-2,.7-2.4,1.7h-13.8c-.3-1-1.3-1.7-2.4-1.7s-2.5,1.1-2.5,2.5,1.1,2.5,2.5,2.5.8,0,1.1-.3l6.2,6.2h-4.9c-.3-1-1.3-1.7-2.4-1.7s-2.5,1.1-2.5,2.5,1.1,2.5,2.5,2.5,2-.7,2.4-1.7h0ZM750.3,299.9c.5,0,.8.4.8.8s-.4.8-.8.8-.8-.4-.8-.8.4-.8.8-.8ZM751.1,291.5c0,.5-.4.8-.8.8s-.8-.4-.8-.8.4-.8.8-.8.8.4.8.8ZM766.6,283.3l-7,7-7-7v-.2h13.8v.2h.2ZM751.1,282.2c0,.5-.4.8-.8.8s-.8-.4-.8-.8.4-.8.8-.8.8.4.8.8ZM768.8,283.1c-.5,0-.8-.4-.8-.8s.4-.8.8-.8.8.4.8.8-.4.8-.8.8Z"/>
        <g id="_Transparent_Rectangle_2">
          <rect class="cls-1" x="746.1" y="278" width="27" height="27"/>
        </g>
      </g>
      <g>
        <path d="M505.6,200c1.7,0,3-1.3,3-3s-1.3-3-3-3-2.4.8-2.8,2h-5.8l7.3-7.3c.4.2.8.3,1.3.3,1.7,0,3-1.3,3-3s-1.3-3-3-3-2.4.8-2.8,2h-16.4c-.4-1.2-1.5-2-2.8-2s-3,1.3-3,3,1.3,3,3,3,.9-.1,1.3-.3l7.3,7.3h-5.8c-.4-1.2-1.5-2-2.8-2s-3,1.3-3,3,1.3,3,3,3,2.4-.8,2.8-2h5.8l-7.3,7.3c-.4-.2-.8-.3-1.3-.3-1.7,0-3,1.3-3,3s1.3,3,3,3,2.4-.8,2.8-2h16.4c.4,1.2,1.5,2,2.8,2s3-1.3,3-3-1.3-3-3-3-.9.1-1.3.3l-7.3-7.3h5.8c.4,1.2,1.5,2,2.8,2h0ZM505.6,196c.6,0,1,.4,1,1s-.4,1-1,1-1-.4-1-1,.4-1,1-1ZM486.4,187h16.4s0,.2.1.3l-8.3,8.3-8.3-8.3s0-.2.1-.3h0ZM505.6,185c.6,0,1,.4,1,1s-.4,1-1,1-1-.4-1-1,.4-1,1-1ZM482.6,186c0-.6.4-1,1-1s1,.4,1,1-.4,1-1,1-1-.4-1-1ZM483.6,198c-.6,0-1-.4-1-1s.4-1,1-1,1,.4,1,1-.4,1-1,1ZM502.7,207h-16.4s0-.2-.1-.3l8.3-8.3,8.3,8.3s0,.2-.1.3h0ZM483.6,209c-.6,0-1-.4-1-1s.4-1,1-1,1,.4,1,1-.4,1-1,1ZM506.6,208c0,.6-.4,1-1,1s-1-.4-1-1,.4-1,1-1,1,.4,1,1Z"/>
        <rect id="_Transparent_Rectangle_3" class="cls-1" x="478.6" y="181" width="32" height="32"/>
      </g>
      <g>
        <polygon points="589.4 294.5 586.8 291.9 585.4 293.3 589.4 297.3 596.4 290.3 595 288.9 589.4 294.5"/>
        <path d="M604.4,292.3h-2.1c-.5-5.8-5.1-10.5-10.9-10.9v-2.1h-2v2.1c-5.8.5-10.5,5.1-10.9,10.9h-2.1v2h2.1c.5,5.8,5.1,10.5,10.9,10.9v2.1h2v-2.1c5.8-.5,10.5-5.1,10.9-10.9h2.1v-2ZM591.4,303.3v-2.9h-2v2.9c-4.7-.5-8.5-4.2-8.9-8.9h2.9v-2h-2.9c.5-4.7,4.2-8.5,8.9-8.9v2.9h2v-2.9c4.7.5,8.5,4.2,8.9,8.9h-2.9v2h2.9c-.5,4.7-4.2,8.5-8.9,8.9Z"/>
        <rect id="_Transparent_Rectangle_4" class="cls-1" x="574.4" y="277.3" width="32" height="32"/>
      </g>
      <g>
        <rect x="292.9" y="281.3" width="11" height="2"/>
        <rect x="306.9" y="281.3" width="10" height="2"/>
        <rect x="309.9" y="287.3" width="7" height="2"/>
        <rect x="299.9" y="287.3" width="7" height="2"/>
        <rect x="292.9" y="287.3" width="4" height="2"/>
        <rect x="292.9" y="293.3" width="24" height="2"/>
        <rect x="292.9" y="299.3" width="17" height="2"/>
        <rect id="_Path_" x="312.9" y="299.3" width="4" height="2"/>
        <rect id="_Transparent_Rectangle_5" class="cls-1" x="288.9" y="275.3" width="32" height="32"/>
      </g>
      <g>
        <circle cx="404.7" cy="204" r="1"/>
        <rect x="389.7" y="203" width="12" height="2"/>
        <circle cx="404.7" cy="190" r="1"/>
        <rect x="389.7" y="189" width="12" height="2"/>
        <path d="M407.7,195c1.1,0,2-.9,2-2v-6c0-1.1-.9-2-2-2h-20c-1.1,0-2,.9-2,2v6c0,1.1.9,2,2,2h2v4h-2c-1.1,0-2,.9-2,2v6c0,1.1.9,2,2,2h20c1.1,0,2-.9,2-2v-6c0-1.1-.9-2-2-2h-2v-4h2ZM387.7,187h20v6h-20v-6ZM407.7,207h-20v-6h20v6ZM403.7,199h-12v-4h12v4Z"/>
        <rect id="_Transparent_Rectangle_6" class="cls-1" x="381.7" y="181" width="32" height="32"/>
      </g>
      <g>
        <path d="M526.5,210.9l-7.5-4.4h-.6l-7.5,4.4c-.2.1-.3.3-.3.5v8.8c0,.2.1.4.3.5l7.5,4.4h.6l7.5-4.4c.2-.1.3-.3.3-.5v-8.8c0-.2,0-.4-.3-.5ZM518.7,207.7l6.3,3.7-1.5.9-3.5-2c-.2-.1-.4-.1-.6,0l-4.1,2.4s-.2.2-.3.3l-2.6-1.5,6.3-3.7h0ZM516.2,215.1l1.9,1.1v2.4l-1.9-1.1v-2.4ZM518.7,215.1l-2.5-1.5h0c0-.1,3.5-2.1,3.5-2.1l2.6,1.5-3.6,2.1h0ZM519.3,216.2l3.8-2.2v3.5l-3.5,2-.3-.2v-3.1ZM511.8,212.5l3.1,1.8v3.5c0,.2,0,.4.3.5l2.8,1.6v3.5l-6.3-3.7v-7.3h.1ZM519.3,223.5v-2.8h.6l4.1-2.4c.2-.1.3-.3.3-.5v-4.6l1.3-.7v7.3l-6.3,3.7h0Z"/>
        <rect id="_x3C_Transparent_Rectangle_x3E_1" class="cls-1" x="508.6" y="205.8" width="20.1" height="20.1"/>
      </g>
      <g>
        <path d="M582.3,434.2l-7.5-4.4h-.6l-7.5,4.4c-.2.1-.3.3-.3.5v8.8c0,.2,0,.4.3.5l7.5,4.4h.6l7.5-4.4c.2-.1.3-.3.3-.5v-8.8c0-.2,0-.4-.3-.5ZM574.4,431.1l6.3,3.7-1.5.9-3.5-2c-.2-.1-.4-.1-.6,0l-4.1,2.4-.3.3-2.6-1.5,6.3-3.7h0s0,0,0,0h0ZM571.9,438.4l1.9,1.1v2.4l-1.9-1.1v-2.4ZM574.4,438.4l-2.5-1.5h0c0-.1,3.5-2.1,3.5-2.1l2.6,1.5-3.6,2.1h0ZM575.1,439.5l3.8-2.2v3.5l-3.5,2-.3-.2v-3.1h0ZM567.5,435.8l3.1,1.8v3.5c0,.2,0,.4.3.5l2.8,1.6v3.5l-6.3-3.7v-7.3h0c0,.1,0,.1,0,.1h0ZM575.1,446.8v-2.8h.6l4.1-2.4c.2-.1.3-.3.3-.5v-4.6l1.3-.7v7.3l-6.3,3.7h0Z"/>
        <rect id="_x3C_Transparent_Rectangle_x3E_2" class="cls-1" x="564.4" y="429.1" width="20.1" height="20.1"/>
      </g>
      <g class="cls-8">
        <text class="cls-10" transform="translate(428.4 341.3)"><tspan x="0" y="0">Model</tspan></text>
      </g>
      <g class="cls-8">
        <text class="cls-10" transform="translate(417.1 355.7)"><tspan x="0" y="0">alignment</tspan></text>
      </g>
      <g class="cls-8">
        <text class="cls-10" transform="translate(263.8 341.3)"><tspan x="0" y="0">Synthetic data</tspan></text>
      </g>
      <text class="cls-10" transform="translate(274.4 355.7)"><tspan x="0" y="0">generation</tspan></text>
      <g class="cls-8">
        <g class="cls-8">
          <g class="cls-8">
            <g class="cls-8">
              <text class="cls-10" transform="translate(316.9 441.3)"><tspan x="0" y="0">User created samples</tspan></text>
            </g>
          </g>
        </g>
      </g>
      <g class="cls-8">
        <text class="cls-10" transform="translate(384 148.9)"><tspan x="0" y="0">Base</tspan><tspan x="-17.2" y="14.4">knowledge</tspan></text>
      </g>
      <g class="cls-8">
        <text class="cls-10" transform="translate(462.5 149)"><tspan x="0" y="0">Foundation</tspan><tspan x="11.5" y="14.4">models</tspan></text>
      </g>
      <g class="cls-8">
        <text class="cls-10" transform="translate(551.6 346.7)"><tspan x="0" y="0">Evaluation</tspan></text>
      </g>
      <g class="cls-8">
        <text class="cls-10" transform="translate(737 337.7)"><tspan x="0" y="0">Aligned</tspan><tspan x="4" y="14.4">model</tspan></text>
      </g>
      <g class="cls-8">
        <text class="cls-10" transform="translate(124 343.2)"><tspan x="0" y="0">User</tspan></text>
      </g>
      <g class="cls-8">
        <text class="cls-10" transform="translate(589.8 443.7)"><tspan x="0" y="0">Granite</tspan></text>
      </g>
    </g>
  </g>
</svg>